<mxfile modified="2019-11-25T03:00:43.143Z" host="www.draw.io" agent="Mozilla/5.0 (X11; Linux x86_64) AppleWebKit/537.36 (KHTML, like Gecko) Chrome/68.0.3440.75 Safari/537.36" etag="Qk0S9FH3taoitlhjpurM" version="12.2.9" type="github" pages="1">
  <diagram id="Y7lfIi5zJnM48_4nkuwt" name="Page-1">
    <mxGraphModel dx="782" dy="501" grid="1" gridSize="10" guides="1" tooltips="1" connect="1" arrows="1" fold="1" page="1" pageScale="1" pageWidth="827" pageHeight="1169" math="0" shadow="0">
      <root>
        <mxCell id="0"/>
        <mxCell id="1" parent="0"/>
        <mxCell id="rGt7zf20XqlDynhyzbkm-1" value="&lt;br&gt;&lt;b&gt;&lt;font style=&quot;font-size: 18px&quot;&gt;生意难做的根本：&lt;/font&gt;&lt;/b&gt;&lt;br&gt;不是你不够努力，跟人没有多大的关系，虽然学习只是一个常规行为。即便你学习了很多，在面对产业周期发生了根本变化的时候&lt;br&gt;学习带给你的仅仅是认知冲击，要解决问题，还需要循序行动，不要让转型、升级误导了您：&lt;br&gt;今天硬件难做了，转型做软件；投资环境恶化了，转型抱团取暖；web端被移动端取代了？大数据、AI、区块链、是下一个风口？&lt;br&gt;总之要记住自己不是猪，再猛的风，不是我们该追逐的。先学会做生意，满足自己虚荣的情怀放到心底。。。&lt;br&gt;" style="text;html=1;resizable=0;points=[];autosize=1;align=left;verticalAlign=top;spacingTop=-4;" parent="1" vertex="1">
          <mxGeometry x="67.5" y="50" width="700" height="90" as="geometry"/>
        </mxCell>
        <mxCell id="rGt7zf20XqlDynhyzbkm-7" value="&lt;b&gt;行业的三个阶段&lt;/b&gt;" style="text;html=1;resizable=0;points=[];autosize=1;align=left;verticalAlign=top;spacingTop=-4;" parent="1" vertex="1">
          <mxGeometry x="98" y="149" width="100" height="20" as="geometry"/>
        </mxCell>
        <mxCell id="rGt7zf20XqlDynhyzbkm-14" value="&lt;b&gt;三个阶段的环境&lt;/b&gt;" style="text;html=1;resizable=0;points=[];autosize=1;align=left;verticalAlign=top;spacingTop=-4;" parent="1" vertex="1">
          <mxGeometry x="238" y="149" width="100" height="20" as="geometry"/>
        </mxCell>
        <mxCell id="rGt7zf20XqlDynhyzbkm-15" value="&lt;b&gt;三个环境下的状态&lt;/b&gt;" style="text;html=1;resizable=0;points=[];autosize=1;align=left;verticalAlign=top;spacingTop=-4;" parent="1" vertex="1">
          <mxGeometry x="389" y="149" width="110" height="20" as="geometry"/>
        </mxCell>
        <mxCell id="rGt7zf20XqlDynhyzbkm-16" value="" style="group" parent="1" vertex="1" connectable="0">
          <mxGeometry x="65" y="244" width="454" height="60" as="geometry"/>
        </mxCell>
        <mxCell id="rGt7zf20XqlDynhyzbkm-5" value="&lt;b&gt;&lt;font style=&quot;font-size: 18px&quot;&gt;中期阶段&lt;/font&gt;&lt;/b&gt;" style="shape=step;perimeter=stepPerimeter;whiteSpace=wrap;html=1;fixedSize=1;fillColor=#330000;strokeColor=#B20000;fontColor=#ffffff;" parent="rGt7zf20XqlDynhyzbkm-16" vertex="1">
          <mxGeometry width="160" height="60" as="geometry"/>
        </mxCell>
        <mxCell id="rGt7zf20XqlDynhyzbkm-9" value="&lt;b&gt;&lt;font style=&quot;font-size: 18px&quot;&gt;有竞争&lt;/font&gt;&lt;/b&gt;" style="shape=step;perimeter=stepPerimeter;whiteSpace=wrap;html=1;fixedSize=1;fillColor=#CC0000;strokeColor=#B09500;fontColor=#ffffff;" parent="rGt7zf20XqlDynhyzbkm-16" vertex="1">
          <mxGeometry x="147" width="160" height="60" as="geometry"/>
        </mxCell>
        <mxCell id="rGt7zf20XqlDynhyzbkm-12" value="&lt;b&gt;&lt;font style=&quot;font-size: 18px&quot;&gt;微利期&lt;/font&gt;&lt;/b&gt;" style="shape=step;perimeter=stepPerimeter;whiteSpace=wrap;html=1;fixedSize=1;fillColor=#FF6666;strokeColor=#B09500;fontColor=#ffffff;" parent="rGt7zf20XqlDynhyzbkm-16" vertex="1">
          <mxGeometry x="294" width="160" height="60" as="geometry"/>
        </mxCell>
        <mxCell id="rGt7zf20XqlDynhyzbkm-17" value="" style="group" parent="1" vertex="1" connectable="0">
          <mxGeometry x="66.5" y="308" width="455" height="60" as="geometry"/>
        </mxCell>
        <mxCell id="rGt7zf20XqlDynhyzbkm-6" value="&lt;b&gt;&lt;font style=&quot;font-size: 18px&quot;&gt;后期阶段&lt;/font&gt;&lt;/b&gt;" style="shape=step;perimeter=stepPerimeter;whiteSpace=wrap;html=1;fixedSize=1;fillColor=#33001A;strokeColor=#3A5431;fontColor=#ffffff;" parent="rGt7zf20XqlDynhyzbkm-17" vertex="1">
          <mxGeometry width="160" height="60" as="geometry"/>
        </mxCell>
        <mxCell id="rGt7zf20XqlDynhyzbkm-10" value="&lt;b&gt;&lt;font style=&quot;font-size: 18px&quot;&gt;没竞争&lt;/font&gt;&lt;/b&gt;" style="shape=step;perimeter=stepPerimeter;whiteSpace=wrap;html=1;fixedSize=1;fillColor=#CC0066;strokeColor=#B09500;fontColor=#ffffff;" parent="rGt7zf20XqlDynhyzbkm-17" vertex="1">
          <mxGeometry x="147" width="160" height="60" as="geometry"/>
        </mxCell>
        <mxCell id="rGt7zf20XqlDynhyzbkm-13" value="&lt;b&gt;&lt;font style=&quot;font-size: 18px&quot;&gt;无利期&lt;/font&gt;&lt;/b&gt;" style="shape=step;perimeter=stepPerimeter;whiteSpace=wrap;html=1;fixedSize=1;fillColor=#FF99CC;strokeColor=#B09500;fontColor=#ffffff;" parent="rGt7zf20XqlDynhyzbkm-17" vertex="1">
          <mxGeometry x="294" width="160" height="60" as="geometry"/>
        </mxCell>
        <mxCell id="rGt7zf20XqlDynhyzbkm-18" value="" style="group" parent="1" vertex="1" connectable="0">
          <mxGeometry x="67" y="180" width="452" height="60" as="geometry"/>
        </mxCell>
        <mxCell id="rGt7zf20XqlDynhyzbkm-2" value="&lt;b&gt;&lt;font style=&quot;font-size: 18px&quot;&gt;初期阶段&lt;/font&gt;&lt;/b&gt;" style="shape=step;perimeter=stepPerimeter;whiteSpace=wrap;html=1;fixedSize=1;fillColor=#999900;strokeColor=#B09500;fontColor=#ffffff;" parent="rGt7zf20XqlDynhyzbkm-18" vertex="1">
          <mxGeometry x="-2" width="160" height="60" as="geometry"/>
        </mxCell>
        <mxCell id="rGt7zf20XqlDynhyzbkm-8" value="&lt;b&gt;&lt;font style=&quot;font-size: 18px&quot;&gt;无竞争&lt;/font&gt;&lt;/b&gt;" style="shape=step;perimeter=stepPerimeter;whiteSpace=wrap;html=1;fixedSize=1;fillColor=#CCCC00;strokeColor=#B09500;fontColor=#ffffff;" parent="rGt7zf20XqlDynhyzbkm-18" vertex="1">
          <mxGeometry x="145" width="160" height="60" as="geometry"/>
        </mxCell>
        <mxCell id="rGt7zf20XqlDynhyzbkm-11" value="&lt;b&gt;&lt;font style=&quot;font-size: 18px&quot; color=&quot;#000000&quot;&gt;暴利期&lt;/font&gt;&lt;/b&gt;" style="shape=step;perimeter=stepPerimeter;whiteSpace=wrap;html=1;fixedSize=1;fillColor=#FFFF66;strokeColor=#B09500;fontColor=#ffffff;" parent="rGt7zf20XqlDynhyzbkm-18" vertex="1">
          <mxGeometry x="293" width="160" height="60" as="geometry"/>
        </mxCell>
        <mxCell id="rGt7zf20XqlDynhyzbkm-20" value="&lt;b&gt;如何解决这样的问题：&lt;/b&gt;&lt;br&gt;面对产业周期（95%的产业都面临这样相同的问题）&lt;br&gt;&lt;br&gt;&lt;b&gt;转型、升级是什么？&lt;/b&gt;&lt;br&gt;由于经营者追求的是利益最大化，销售的本质是收回货币！So&lt;br&gt;&lt;br&gt;&lt;b&gt;转&lt;/b&gt;的是经营过程中的&lt;b&gt;盈利模式。&lt;/b&gt;&lt;br&gt;&lt;b&gt;升&lt;/b&gt;的是经营过程中的&lt;b&gt;盈利能力。&lt;/b&gt;&lt;br&gt;&lt;b&gt;转型盈利模式：&lt;/b&gt;设计的格局要长远、要具有臆想的本能。把过去的盈利点从单一的商品上面扩展衍生到资源。。。&lt;br&gt;所谓资源抽象的有：&lt;b&gt;{&lt;/b&gt;人脉、原材料、设备、教育、服务&lt;b&gt;}&lt;/b&gt;&lt;br&gt;&lt;br&gt;过去也有说“薄利多销”，这只是其中最基础又无奈的一面。能逆势操作不仅是市场分析能力的体现、更是一种超级自恋的态度。&lt;b&gt;&lt;br&gt;升级盈利能力：&lt;/b&gt;把资源包装成产品销售，是一种臆想能力的体现，如何把一个产业做到整条链上的各个环节都有其专业属性&lt;b&gt;（行业生态的打造能力）&lt;/b&gt;。&lt;br&gt;&lt;b&gt;人脉：&lt;/b&gt;产品不是用来赚钱的，而是用来&lt;b&gt;连接人（引流）&lt;/b&gt;把过去单一个体连接起来，搭建起互通的信息渠道&lt;b&gt;（所谓行业沙龙的组织能力）&lt;/b&gt;。&lt;br&gt;&lt;b&gt;原材料：&lt;/b&gt;把过去的商品原材料掌控在自己的手中，控制原材料的价格，压缩成本&lt;b&gt;（新材料的研发能力）&lt;/b&gt;。&lt;br&gt;&lt;b&gt;设备：&lt;/b&gt;设备的维修技术、改良&lt;b&gt;（生产制造的创新能力）。&lt;/b&gt;&lt;br&gt;&lt;b&gt;教育：&lt;/b&gt;把已有的经验传授出去，形成一种合作模式，搭建起多渠道，形成规模化、标准化&lt;b&gt;（行业生态离不开的“&lt;/b&gt;&lt;b&gt;开放平台建设&lt;/b&gt;&lt;b&gt;”）&lt;/b&gt;。&amp;nbsp; &amp;nbsp;&amp;nbsp;&lt;br&gt;&lt;b&gt;服务：&lt;/b&gt;把产品带给客户的需求落地实现，有的客户可能把产品仅仅用到了功能的1/3，还有2/3处于荒废状态，要让客户用尽产品功能，&lt;br&gt;&amp;nbsp; &amp;nbsp; &amp;nbsp; &amp;nbsp; &amp;nbsp; &amp;nbsp;需要提供功能实现上的各方面服务&lt;b&gt;（行业文化）&lt;/b&gt;。&lt;br&gt;&lt;br&gt;" style="text;html=1;resizable=0;points=[];autosize=1;align=left;verticalAlign=top;spacingTop=-4;" parent="1" vertex="1">
          <mxGeometry x="65" y="380" width="810" height="280" as="geometry"/>
        </mxCell>
        <mxCell id="rGt7zf20XqlDynhyzbkm-21" value="" style="shape=flexArrow;endArrow=classic;html=1;fillColor=#fa6800;strokeColor=#C73500;" parent="1" edge="1">
          <mxGeometry width="50" height="50" relative="1" as="geometry">
            <mxPoint x="531" y="178" as="sourcePoint"/>
            <mxPoint x="531" y="388" as="targetPoint"/>
            <Array as="points">
              <mxPoint x="531" y="288"/>
            </Array>
          </mxGeometry>
        </mxCell>
        <mxCell id="rGt7zf20XqlDynhyzbkm-22" value="&lt;b&gt;这是一个虚假的现象（安慰人的话）&lt;br&gt;&lt;br&gt;暴利的可持续性，是所有自我的经营目标：&lt;br&gt;追求利益最大化，&lt;br&gt;是经营者的永恒目标。&lt;br&gt;&lt;/b&gt;&lt;br&gt;" style="text;html=1;resizable=0;points=[];autosize=1;align=left;verticalAlign=top;spacingTop=-4;" parent="1" vertex="1">
          <mxGeometry x="537" y="229" width="240" height="90" as="geometry"/>
        </mxCell>
        <mxCell id="mDQQoLGaGokcj-hFd62N-1" value="&lt;b&gt;&lt;font style=&quot;font-size: 18px&quot;&gt;5G时代会带来什么&lt;/font&gt;&lt;/b&gt;" style="text;html=1;align=center;verticalAlign=middle;resizable=0;points=[];;autosize=1;" vertex="1" parent="1">
          <mxGeometry x="869" y="35" width="170" height="20" as="geometry"/>
        </mxCell>
        <mxCell id="mDQQoLGaGokcj-hFd62N-2" value="如同4G时代带来的短视频及直播平台、各种应用的可能性也是逐渐成熟的过程。" style="text;html=1;align=center;verticalAlign=middle;resizable=0;points=[];;autosize=1;" vertex="1" parent="1">
          <mxGeometry x="950" y="70" width="440" height="20" as="geometry"/>
        </mxCell>
        <mxCell id="mDQQoLGaGokcj-hFd62N-3" value="万物互联（IoT）更成熟稳健" style="rounded=1;whiteSpace=wrap;html=1;fillColor=#fad7ac;strokeColor=#b46504;" vertex="1" parent="1">
          <mxGeometry x="1000" y="200" width="220" height="41" as="geometry"/>
        </mxCell>
        <mxCell id="mDQQoLGaGokcj-hFd62N-4" value="视频类自媒体更疯狂" style="rounded=1;whiteSpace=wrap;html=1;fillColor=#fad7ac;strokeColor=#b46504;" vertex="1" parent="1">
          <mxGeometry x="1000" y="241" width="220" height="41" as="geometry"/>
        </mxCell>
        <mxCell id="mDQQoLGaGokcj-hFd62N-5" value="及时性的游戏及游戏外围设备" style="rounded=1;whiteSpace=wrap;html=1;fillColor=#fad7ac;strokeColor=#b46504;" vertex="1" parent="1">
          <mxGeometry x="1000" y="159" width="220" height="41" as="geometry"/>
        </mxCell>
      </root>
    </mxGraphModel>
  </diagram>
</mxfile>
